<svg version="1.1" id="Layer_1" xmlns="http://www.w3.org/2000/svg" xmlns:xlink="http://www.w3.org/1999/xlink" x="0px" y="0px"
	 width="100%" viewBox="0 0 160 160" enable-background="new 0 0 160 160" xml:space="preserve">
<path fill="#01A651" opacity="1.000000" stroke="none" 
	d="
M1.000000,160.000000 
	C1.000000,107.072990 1.000000,54.145981 1.000000,1.000000 
	C53.687359,1.000000 106.375023,1.000000 159.532227,1.468657 
	C160.001785,54.531197 160.001785,107.125076 160.001785,160.000000 
	C106.605370,160.000000 53.802685,160.000000 1.000000,160.000000 
M122.610558,51.236160 
	C118.085419,51.502384 113.560280,51.768604 108.930412,52.962631 
	C108.926315,70.823303 108.875549,88.684319 109.007179,106.543991 
	C109.017647,107.965080 110.290276,109.376854 111.665169,111.164368 
	C114.785820,111.020935 117.906464,110.877495 121.867661,110.976707 
	C122.268387,109.870476 123.016006,108.764923 123.018135,107.657921 
	C123.053848,89.117722 122.996445,70.577347 122.610558,51.236160 
M91.577629,99.464714 
	C91.577629,103.244446 91.577629,107.024170 91.577629,110.944931 
	C96.464470,110.944931 100.741982,110.944931 105.273544,110.944931 
	C105.273544,94.861641 105.273544,78.999390 105.273544,63.135422 
	C100.533440,63.135422 96.156105,63.135422 91.577698,63.135422 
	C91.577698,75.178207 91.577698,86.827156 91.577629,99.464714 
M87.976982,95.496292 
	C87.976982,88.595474 87.976982,81.694656 87.976982,74.757187 
	C82.904419,74.757187 78.538208,74.757187 74.226257,74.757187 
	C74.226257,87.055923 74.226257,98.931961 74.226257,110.769287 
	C78.936737,110.769287 83.308731,110.769287 87.976982,110.769287 
	C87.976982,105.753441 87.976982,101.123924 87.976982,95.496292 
M70.608673,105.301239 
	C70.608673,99.026062 70.608673,92.750885 70.608673,86.371399 
	C65.643860,86.371399 61.291016,86.371399 56.926010,86.371399 
	C56.926010,94.784195 56.926010,102.822327 56.926010,110.896057 
	C61.565727,110.896057 65.820740,110.896057 70.361588,110.896057 
	C70.453148,109.178535 70.531189,107.714706 70.608673,105.301239 
M51.334641,111.142166 
	C51.909161,110.676872 52.966438,110.227356 52.982250,109.743790 
	C53.115494,105.669624 53.058197,101.589218 53.058197,97.456337 
	C48.139412,97.456337 43.904026,97.456337 39.553928,97.456337 
	C39.553928,102.146446 39.553928,106.512550 39.553928,111.166130 
	C43.409790,111.166130 46.891109,111.166130 51.334641,111.142166 
z"/>
<path fill="#FFFFFF" opacity="1.000000" stroke="none" 
	d="
M1.000000,160.500000 
	C53.802685,160.000000 106.605370,160.000000 160.001785,160.000000 
	C160.001785,107.125076 160.001785,54.531197 160.000885,1.468657 
	C160.333328,2.330742 160.956879,3.661208 160.958145,4.992264 
	C161.007431,56.911354 161.000000,108.830498 161.000000,161.000000 
	C107.666931,161.000000 54.333466,161.000000 1.000000,160.500000 
z"/>
<path fill="#F7FCFA" opacity="1.000000" stroke="none" 
	d="
M91.577667,98.970413 
	C91.577698,86.827156 91.577698,75.178207 91.577698,63.135422 
	C96.156105,63.135422 100.533440,63.135422 105.273544,63.135422 
	C105.273544,78.999390 105.273544,94.861641 105.273544,110.944931 
	C100.741982,110.944931 96.464470,110.944931 91.577629,110.944931 
	C91.577629,107.024170 91.577629,103.244446 91.577667,98.970413 
z"/>
<path fill="#FAFDFB" opacity="1.000000" stroke="none" 
	d="
M87.976982,95.995346 
	C87.976982,101.123924 87.976982,105.753441 87.976982,110.769287 
	C83.308731,110.769287 78.936737,110.769287 74.226257,110.769287 
	C74.226257,98.931961 74.226257,87.055923 74.226257,74.757187 
	C78.538208,74.757187 82.904419,74.757187 87.976982,74.757187 
	C87.976982,81.694656 87.976982,88.595474 87.976982,95.995346 
z"/>
<path fill="#F6FCF9" opacity="1.000000" stroke="none" 
	d="
M70.608948,105.776062 
	C70.531189,107.714706 70.453148,109.178535 70.361588,110.896057 
	C65.820740,110.896057 61.565727,110.896057 56.926010,110.896057 
	C56.926010,102.822327 56.926010,94.784195 56.926010,86.371399 
	C61.291016,86.371399 65.643860,86.371399 70.608673,86.371399 
	C70.608673,92.750885 70.608673,99.026062 70.608948,105.776062 
z"/>
<path fill="#F5FCF8" opacity="1.000000" stroke="none" 
	d="
M50.853535,111.154144 
	C46.891109,111.166130 43.409790,111.166130 39.553928,111.166130 
	C39.553928,106.512550 39.553928,102.146446 39.553928,97.456337 
	C43.904026,97.456337 48.139412,97.456337 53.058197,97.456337 
	C53.058197,101.589218 53.115494,105.669624 52.982250,109.743790 
	C52.966438,110.227356 51.909161,110.676872 50.853535,111.154144 
z"/>
<path fill="#F1FAF6" opacity="1.000000" stroke="none" 
	d="
M110.976357,110.792953 
	C110.290276,109.376854 109.017647,107.965080 109.007179,106.543991 
	C108.875549,88.684319 108.926315,70.823303 109.261284,52.499229 
	C110.036034,52.356503 110.479904,52.677174 110.749168,53.438301 
	C110.660919,72.366669 110.747276,90.854584 110.759789,109.585297 
	C110.782745,110.149727 110.879547,110.471336 110.976357,110.792953 
z"/>
<path fill="#EDF9F2" opacity="1.000000" stroke="none" 
	d="
M122.959747,52.037014 
	C122.996445,70.577347 123.053848,89.117722 123.018135,107.657921 
	C123.016006,108.764923 122.268387,109.870476 121.551216,110.626869 
	C121.207550,109.951820 121.180328,109.626617 121.282593,108.826637 
	C121.423935,102.361046 121.485886,96.369827 121.437241,90.379494 
	C121.336052,77.919060 121.176277,65.459099 121.247284,52.808849 
	C121.955902,52.424839 122.457825,52.230927 122.959747,52.037014 
z"/>
<path fill="#8AD6AD" opacity="1.000000" stroke="none" 
	d="
M121.153114,109.301407 
	C121.180328,109.626617 121.207550,109.951820 121.130943,110.505547 
	C117.906464,110.877495 114.785820,111.020935 111.320763,110.978661 
	C110.879547,110.471336 110.782745,110.149727 111.229019,109.583183 
	C114.899109,109.325974 118.026108,109.313690 121.153114,109.301407 
z"/>
<path fill="#8AD6AD" opacity="1.000000" stroke="none" 
	d="
M122.785156,51.636589 
	C122.457825,52.230927 121.955902,52.424839 120.788658,52.824314 
	C117.056816,53.019199 113.990303,53.008522 110.923782,52.997845 
	C110.479904,52.677174 110.036034,52.356503 109.313644,52.035328 
	C113.560280,51.768604 118.085419,51.502384 122.785156,51.636589 
z"/>
<path fill="#03A651" opacity="1.000000" stroke="none" 
	d="
M110.749168,53.438301 
	C113.990303,53.008522 117.056816,53.019199 120.581955,53.014412 
	C121.176277,65.459099 121.336052,77.919060 121.437241,90.379494 
	C121.485886,96.369827 121.423935,102.361046 121.282593,108.826637 
	C118.026108,109.313690 114.899109,109.325974 111.302872,109.340378 
	C110.747276,90.854584 110.660919,72.366669 110.749168,53.438301 
z"/>
</svg>